<svg xmlns="http://www.w3.org/2000/svg" viewBox="0 0 77.25 73.44"><defs><style>.cls-1{fill:#f39c12;}</style></defs><g id="Capa_2" data-name="Capa 2"><g id="Capa_1-2" data-name="Capa 1"><path class="cls-1" d="M59.81,9.67a17.5,17.5,0,0,0-5.2.79A17.44,17.44,0,0,0,22.44,11,17.44,17.44,0,0,0,12.19,44.29V68.81a4.65,4.65,0,0,0,4.64,4.63h43.6a4.65,4.65,0,0,0,4.63-4.63V43.75A17.45,17.45,0,0,0,59.81,9.67ZM18.17,22.8a1.22,1.22,0,0,1,.92-1.2,1.49,1.49,0,0,1,1.26.44c2.43,2.44,6.47,6.47,10.52,10.52L36,37.67l-5,5c-.54-.49-1.1-1-1.69-1.62C20.32,32.16,17.81,26.23,18.17,22.8ZM54.68,60a2.71,2.71,0,0,1-3.8-.17l-11.2-12.3A7.15,7.15,0,0,1,37.09,47l4.09-4.09,2.66,2.67L54.51,56.21A2.71,2.71,0,0,1,54.68,60Zm4.77-30.73-8.62,8.61c-2.82,2.82-4.78,1.92-6.56.32L22.08,60.4a2.58,2.58,0,1,1-3.63-3.64L40.63,34.58c-1.6-1.78-2.5-3.74.31-6.56l-.65.65L41,28h0l8.62-8.62a1.29,1.29,0,0,1,1.75.31,1.29,1.29,0,0,1,.31,1.75l-8,8a1.36,1.36,0,0,0,1.86,1.86l8-8c.39-.4,1.18-.26,1.75.31a1.3,1.3,0,0,1,.3,1.75l-8,8a1.35,1.35,0,0,0,1.86,1.85l8-8c.4-.4,1.18-.26,1.75.31A1.32,1.32,0,0,1,59.45,29.28Z"/></g></g></svg>